<svg width="100%" height="100%" preserveAspectRatio="xMinYMin meet" viewBox="0 0 25 24" fill="none" xmlns="http://www.w3.org/2000/svg">
<path d="M22.6035 12C22.6035 17.5228 18.1264 22 12.6035 22C7.08067 22 2.60352 17.5228 2.60352 12C2.60352 6.47715 7.08067 2 12.6035 2C18.1264 2 22.6035 6.47715 22.6035 12Z" fill="#CFD4D9"/>
<path fill-rule="evenodd" clip-rule="evenodd" d="M8.13373 16.5307C8.42663 16.8236 8.9015 16.8236 9.19439 16.5307L17.1342 8.59088C17.4271 8.29798 17.4271 7.82311 17.1342 7.53022C16.8413 7.23732 16.3664 7.23732 16.0735 7.53022L8.13373 15.47C7.84084 15.7629 7.84084 16.2378 8.13373 16.5307Z" fill="white"/>
<path fill-rule="evenodd" clip-rule="evenodd" d="M8.19439 7.53067C7.9015 7.82357 7.9015 8.29844 8.19439 8.59133L16.1342 16.5311C16.4271 16.824 16.902 16.824 17.1948 16.5311C17.4877 16.2382 17.4877 15.7634 17.1948 15.4705L9.25505 7.53067C8.96216 7.23778 8.48729 7.23778 8.19439 7.53067Z" fill="white"/>
</svg>
